<svg xmlns="http://www.w3.org/2000/svg" viewBox="0 0 512 512" fill="none">
  <defs>
    <radialGradient id="bg" cx="50%" cy="40%" r="65%">
      <stop offset="0%" stop-color="#1A0B10"/>
      <stop offset="100%" stop-color="#04060B"/>
    </radialGradient>
    <linearGradient id="shield" x1="50%" y1="0%" x2="50%" y2="100%">
      <stop offset="0%" stop-color="#FF6E7B"/>
      <stop offset="50%" stop-color="#FF2E3F"/>
      <stop offset="100%" stop-color="#8C0A14"/>
    </linearGradient>
    <linearGradient id="text" x1="50%" y1="0%" x2="50%" y2="100%">
      <stop offset="0%" stop-color="#FFFFFF"/>
      <stop offset="100%" stop-color="#FFD8DC"/>
    </linearGradient>
  </defs>
  <rect width="512" height="512" rx="112" fill="url(#bg)"/>
  <circle cx="256" cy="256" r="200" fill="none" stroke="rgba(255,46,63,0.18)" stroke-width="2"/>
  <circle cx="256" cy="256" r="160" fill="none" stroke="rgba(255,46,63,0.22)" stroke-width="2"/>
  <path d="M256 96 L376 144 L376 268 C376 348 322 412 256 432 C190 412 136 348 136 268 L136 144 Z" fill="url(#shield)" stroke="rgba(255,255,255,.18)" stroke-width="3"/>
  <path d="M256 116 L356 156 L356 268 C356 336 312 392 256 408 C200 392 156 336 156 268 L156 156 Z" fill="none" stroke="rgba(255,255,255,.25)" stroke-width="2"/>
  <text x="256" y="296" font-family="'Sora',-apple-system,system-ui,sans-serif" font-weight="800" font-size="86" letter-spacing="4" text-anchor="middle" fill="url(#text)">SOS</text>
</svg>
